<svg xmlns="http://www.w3.org/2000/svg" width="100" height="100" viewBox="0 0 100 100">
  <path id="adobe-photoshop-svgrepo-com" d="M41.042,35a11.953,11.953,0,0,0-4.917-.855c-1.083,0-2.042,0-2.833.043a9.3,9.3,0,0,0-1.708.043v14.36c.583.043,1.125.085,1.625.085h2.208a15.207,15.207,0,0,0,4.792-.769,7.15,7.15,0,0,0,3.417-2.265,6.72,6.72,0,0,0,1.292-4.4,7.175,7.175,0,0,0-.958-3.8A6.076,6.076,0,0,0,41.042,35ZM82.292.3H17.708A17.925,17.925,0,0,0,0,18.463V82.137A17.925,17.925,0,0,0,17.708,100.3H82.292A17.925,17.925,0,0,0,100,82.137V18.463A17.925,17.925,0,0,0,82.292.3ZM51.5,50.088a14.289,14.289,0,0,1-6.7,5.214,26.385,26.385,0,0,1-9.375,1.453c-1,0-1.667,0-2.083-.043s-1-.043-1.792-.043V70.384a.533.533,0,0,1-.458.6H23c-.333,0-.5-.175-.5-.56V26.455c0-.3.125-.47.417-.47.708,0,1.375,0,2.333-.043,1-.043,2.042-.043,3.167-.085s2.333-.043,3.625-.085,2.542-.043,3.792-.043a23.939,23.939,0,0,1,8.583,1.325A14.82,14.82,0,0,1,50,30.558a13.653,13.653,0,0,1,3.042,4.872A16.837,16.837,0,0,1,54,40.985a15.505,15.505,0,0,1-2.5,9.1ZM81.042,66.713a10.58,10.58,0,0,1-4.667,3.808,18.756,18.756,0,0,1-7.546,1.359,27.962,27.962,0,0,1-5.663-.551,16.671,16.671,0,0,1-4.25-1.368.838.838,0,0,1-.462-.808V61.717a.479.479,0,0,1,.171-.385.312.312,0,0,1,.375.043,17.462,17.462,0,0,0,5.167,2.094,18.892,18.892,0,0,0,4.917.641,7.768,7.768,0,0,0,3.458-.6,1.989,1.989,0,0,0,1.125-1.795,2.27,2.27,0,0,0-1-1.709,17.934,17.934,0,0,0-4.079-2.013,25.487,25.487,0,0,1-5.917-3.073A11.127,11.127,0,0,1,59.5,51.285a9.419,9.419,0,0,1-.954-4.363,10.208,10.208,0,0,1,1.421-5.171,10.346,10.346,0,0,1,4.371-3.932,15.838,15.838,0,0,1,7.371-1.492,35.038,35.038,0,0,1,5.167.385,14.371,14.371,0,0,1,3.583.983.751.751,0,0,1,.417.385,2.2,2.2,0,0,1,.083.513v6.966a.531.531,0,0,1-.208.427,1.084,1.084,0,0,1-.75,0,14.506,14.506,0,0,0-4-1.453,21.44,21.44,0,0,0-4.667-.556,8.233,8.233,0,0,0-2.5.3,2.148,2.148,0,0,0-1.292.855,2.308,2.308,0,0,0-.333,1.154,1.907,1.907,0,0,0,.421,1.111,4.673,4.673,0,0,0,1.417,1.154C70,49.063,71,49.533,72,49.96a29.786,29.786,0,0,1,6.421,3.12A9.76,9.76,0,0,1,81.7,56.627a9.394,9.394,0,0,1,.958,4.4,10.107,10.107,0,0,1-1.621,5.688Z" transform="translate(0 -0.3)" fill="#29525e"/>
</svg>
