<svg id="design-svgrepo-com" xmlns="http://www.w3.org/2000/svg" width="100" height="100" viewBox="0 0 100 100">
  <path id="Path_14" data-name="Path 14" d="M92.021,24.469a1.6,1.6,0,0,0,1.6-1.6V15.957H98.4a1.6,1.6,0,0,0,1.6-1.6V1.6A1.6,1.6,0,0,0,98.4,0H85.638a1.6,1.6,0,0,0-1.6,1.6V6.383H15.957V1.6a1.6,1.6,0,0,0-1.6-1.6H1.6A1.6,1.6,0,0,0,0,1.6V14.362a1.6,1.6,0,0,0,1.6,1.6H6.383V84.043H1.6a1.6,1.6,0,0,0-1.6,1.6V98.4A1.6,1.6,0,0,0,1.6,100H14.362a1.6,1.6,0,0,0,1.6-1.6V93.617H84.043V98.4a1.6,1.6,0,0,0,1.6,1.6H98.4a1.6,1.6,0,0,0,1.6-1.6V85.638a1.6,1.6,0,0,0-1.6-1.6H93.617V29.256a1.6,1.6,0,1,0-3.191,0V84.043H85.638a1.6,1.6,0,0,0-1.6,1.6v4.787H15.957V85.638a1.6,1.6,0,0,0-1.6-1.6H9.574V15.957h4.787a1.6,1.6,0,0,0,1.6-1.6V9.574H84.043v4.787a1.6,1.6,0,0,0,1.6,1.6h4.787v6.916A1.6,1.6,0,0,0,92.021,24.469ZM87.234,87.234h9.574v9.574H87.234ZM12.766,96.809H3.191V87.234h9.574Zm0-84.043H3.191V3.191h9.574ZM87.234,3.191h9.574v9.574H87.234Z" fill="#29525e"/>
  <path id="Path_15" data-name="Path 15" d="M158.26,101.57A1.592,1.592,0,0,0,156.641,100H101.618A1.592,1.592,0,0,0,100,101.57v26.608a1.592,1.592,0,0,0,1.618,1.565h55.023a1.592,1.592,0,0,0,1.618-1.565ZM103.237,104.1l22.274,10.772-22.274,10.772Zm5.237-.967h41.312l-20.656,9.989Zm20.656,13.489,20.656,9.989H108.474Zm3.619-1.75L155.023,104.1v21.543Z" transform="translate(-79.13 -78.551)" fill="#29525e"/>
  <path id="Path_16" data-name="Path 16" d="M125.044,355H101.565a1.565,1.565,0,1,0,0,3.13h23.479a1.565,1.565,0,1,0,0-3.13Z" transform="translate(-78.572 -279.421)" fill="#29525e"/>
  <path id="Path_17" data-name="Path 17" d="M267.544,355H244.065a1.565,1.565,0,1,0,0,3.13h23.479a1.565,1.565,0,0,0,0-3.13Z" transform="translate(-190.537 -279.421)" fill="#29525e"/>
  <path id="Path_18" data-name="Path 18" d="M125.044,323.125H101.565a1.565,1.565,0,1,0,0,3.13h23.479a1.565,1.565,0,1,0,0-3.13Z" transform="translate(-78.572 -254.332)" fill="#29525e"/>
  <path id="Path_19" data-name="Path 19" d="M267.544,323.125H244.065a1.565,1.565,0,1,0,0,3.13h23.479a1.565,1.565,0,0,0,0-3.13Z" transform="translate(-190.537 -254.332)" fill="#29525e"/>
  <path id="Path_20" data-name="Path 20" d="M125.044,291.25H101.565a1.565,1.565,0,1,0,0,3.131h23.479a1.565,1.565,0,1,0,0-3.131Z" transform="translate(-78.572 -229.243)" fill="#29525e"/>
  <path id="Path_21" data-name="Path 21" d="M267.544,291.25H244.065a1.565,1.565,0,1,0,0,3.131h23.479a1.565,1.565,0,0,0,0-3.131Z" transform="translate(-190.537 -229.243)" fill="#29525e"/>
  <path id="Path_22" data-name="Path 22" d="M156.641,259.374H101.618a1.566,1.566,0,1,0,0,3.13h55.023a1.566,1.566,0,1,0,0-3.13Z" transform="translate(-79.13 -204.153)" fill="#29525e"/>
</svg>
