<svg xmlns="http://www.w3.org/2000/svg" width="90" height="102.227" viewBox="0 0 90 102.227">
  <path id="file-code" d="M90,24.347v1.21H60V0h1.42A6.158,6.158,0,0,1,65.4,1.4L88.353,20.959A4.464,4.464,0,0,1,90,24.347Zm-31.875,7.6c-3.094,0-5.625-2.156-5.625-4.792V0H5.625C2.518,0,0,2.145,0,4.792V97.435c0,2.647,2.518,4.792,5.625,4.792h78.75c3.107,0,5.625-2.145,5.625-4.792V31.946ZM28.876,79.966a1.425,1.425,0,0,1-1.789.049l-15.2-12.142a.973.973,0,0,1,0-1.573l15.2-12.142a1.425,1.425,0,0,1,1.789.049l4.589,4.17a.991.991,0,0,1,.341.789,1.026,1.026,0,0,1-.428.758l-9.554,7.163,9.554,7.163a1.026,1.026,0,0,1,.428.758.991.991,0,0,1-.341.789l-4.589,4.17ZM40.9,90.045l-6.434-1.591a1.065,1.065,0,0,1-.863-1.336L48,44.863a1.31,1.31,0,0,1,1.568-.735L56,45.72a1.065,1.065,0,0,1,.862,1.336L42.467,89.31a1.309,1.309,0,0,1-1.568.735ZM78.584,67.873l-15.2,12.142a1.425,1.425,0,0,1-1.789-.049L57,75.8a.991.991,0,0,1-.341-.789,1.026,1.026,0,0,1,.428-.758l9.554-7.162-9.554-7.163a1.026,1.026,0,0,1-.428-.758A.991.991,0,0,1,57,58.377l4.589-4.17a1.425,1.425,0,0,1,1.789-.049L78.585,66.3a.973.973,0,0,1,0,1.573Z" fill="#29525e"/>
</svg>
