<svg xmlns="http://www.w3.org/2000/svg" width="100" height="100" viewBox="0 0 100 100">
  <path id="font" d="M33.929,117.714h-5.36L34.5,99.683H65.357l5.934,18.032h-5.22a3.571,3.571,0,0,0-3.571,3.571v7.143A3.571,3.571,0,0,0,66.071,132H96.429A3.571,3.571,0,0,0,100,128.429v-7.143a3.571,3.571,0,0,0-3.571-3.571H90.46L61.494,34.4A3.571,3.571,0,0,0,58.121,32H41.879a3.571,3.571,0,0,0-3.373,2.4L9.54,117.714H3.571A3.571,3.571,0,0,0,0,121.286v7.143A3.571,3.571,0,0,0,3.571,132H33.929a3.571,3.571,0,0,0,3.571-3.571v-7.143A3.571,3.571,0,0,0,33.929,117.714ZM48.293,57.05a63.136,63.136,0,0,0,1.693-7.733,46.163,46.163,0,0,0,1.725,7.747l9.227,27.68H38.925Z" transform="translate(0 -32)" fill="#29525e"/>
</svg>
