<svg xmlns="http://www.w3.org/2000/svg" width="67.877" height="66.181" viewBox="0 0 67.877 66.181">
  <path id="github" d="M22.7,61.288c0,.274-.315.493-.712.493-.452.041-.766-.178-.766-.493,0-.274.315-.493.712-.493C22.347,60.755,22.7,60.974,22.7,61.288Zm-4.256-.616c-.1.274.178.588.588.671a.642.642,0,0,0,.848-.274c.082-.274-.178-.588-.588-.712a.7.7,0,0,0-.848.315ZM24.5,60.44c-.4.1-.671.356-.63.671.041.274.4.452.807.356s.671-.356.63-.629S24.893,60.4,24.5,60.44ZM33.5,8C14.52,8,0,22.41,0,41.391A34.309,34.309,0,0,0,23.2,74.125c1.752.315,2.367-.766,2.367-1.656,0-.848-.041-5.529-.041-8.4,0,0-9.579,2.053-11.591-4.078,0,0-1.56-3.982-3.8-5.009,0,0-3.134-2.149.219-2.107A7.224,7.224,0,0,1,15.628,56.4c3,5.282,8.019,3.763,9.976,2.86a7.606,7.606,0,0,1,2.19-4.612c-7.65-.848-15.368-1.957-15.368-15.122a10.371,10.371,0,0,1,3.23-8.06,12.929,12.929,0,0,1,.356-9.292c2.86-.89,9.443,3.695,9.443,3.695a32.329,32.329,0,0,1,17.188,0s6.582-4.6,9.443-3.695a12.923,12.923,0,0,1,.356,9.292c2.19,2.422,3.531,4.311,3.531,8.06,0,13.206-8.06,14.259-15.71,15.122,1.259,1.081,2.326,3.134,2.326,6.35,0,4.612-.041,10.318-.041,11.44,0,.89.63,1.971,2.367,1.656C58.6,69.554,67.877,56.567,67.877,41.391,67.877,22.41,52.481,8,33.5,8ZM13.3,55.2c-.178.137-.137.452.1.712.219.219.534.315.712.137.178-.137.137-.452-.1-.712C13.794,55.117,13.48,55.021,13.3,55.2ZM11.824,54.09c-.1.178.041.4.315.534a.407.407,0,0,0,.588-.1c.1-.178-.041-.4-.315-.534C12.138,53.912,11.919,53.953,11.824,54.09Zm4.434,4.872c-.219.178-.137.588.178.848.315.315.712.356.89.137.178-.178.1-.588-.178-.848C16.846,58.784,16.435,58.743,16.258,58.962ZM14.7,56.95c-.219.137-.219.493,0,.807s.588.452.766.315a.624.624,0,0,0,0-.848C15.272,56.909,14.916,56.772,14.7,56.95Z" transform="translate(0 -8)" fill="#fff"/>
</svg>
