<svg xmlns="http://www.w3.org/2000/svg" width="61.342" height="61.328" viewBox="0 0 61.342 61.328">
  <path id="instagram" d="M30.6,46.765A15.724,15.724,0,1,0,46.327,62.489,15.7,15.7,0,0,0,30.6,46.765Zm0,25.946A10.223,10.223,0,1,1,40.825,62.489,10.241,10.241,0,0,1,30.6,72.712ZM50.637,46.122a3.668,3.668,0,1,1-3.668-3.668A3.659,3.659,0,0,1,50.637,46.122Zm10.414,3.722c-.233-4.913-1.355-9.265-4.954-12.85s-7.937-4.708-12.85-4.954c-5.063-.287-20.24-.287-25.3,0-4.9.233-9.251,1.355-12.85,4.94S.387,44.918.141,49.831c-.287,5.063-.287,20.24,0,25.3C.373,80.047,1.5,84.4,5.094,87.984s7.937,4.708,12.85,4.954c5.063.287,20.24.287,25.3,0,4.913-.233,9.265-1.355,12.85-4.954s4.708-7.937,4.954-12.85c.287-5.063.287-20.226,0-25.289ZM54.51,80.567a10.349,10.349,0,0,1-5.83,5.83C44.643,88,35.064,87.628,30.6,87.628s-14.054.356-18.078-1.232a10.349,10.349,0,0,1-5.83-5.83C5.094,76.53,5.464,66.95,5.464,62.489S5.108,48.435,6.7,44.412a10.349,10.349,0,0,1,5.83-5.83c4.037-1.6,13.616-1.232,18.078-1.232s14.054-.356,18.078,1.232a10.349,10.349,0,0,1,5.83,5.83c1.6,4.037,1.232,13.616,1.232,18.078S56.111,76.543,54.51,80.567Z" transform="translate(0.075 -31.825)" fill="#fff"/>
</svg>
