<svg xmlns="http://www.w3.org/2000/svg" width="98.146" height="98.146" viewBox="0 0 98.146 98.146">
  <path id="js" d="M0,32v98.146H98.146V32Zm53.41,76.545c0,9.552-5.608,13.911-13.78,13.911-7.383,0-11.655-3.812-13.846-8.434l7.514-4.535c1.446,2.563,2.76,4.732,5.937,4.732,3.023,0,4.951-1.183,4.951-5.805V77.064H53.41Zm21.82,13.911c-8.566,0-14.108-4.075-16.8-9.42l7.514-4.338c1.972,3.22,4.557,5.608,9.092,5.608,3.812,0,6.266-1.906,6.266-4.557,0-3.155-2.5-4.272-6.726-6.134l-2.3-.986c-6.66-2.826-11.063-6.4-11.063-13.911,0-6.923,5.28-12.181,13.5-12.181,5.871,0,10.077,2.037,13.1,7.383l-7.186,4.6c-1.577-2.826-3.286-3.943-5.937-3.943-2.695,0-4.4,1.709-4.4,3.943,0,2.76,1.709,3.878,5.674,5.608l2.3.986c7.843,3.352,12.246,6.791,12.246,14.5C90.5,117.9,83.971,122.456,75.23,122.456Z" transform="translate(0 -32)" fill="#29525e"/>
</svg>
