<svg xmlns="http://www.w3.org/2000/svg" width="100" height="100" viewBox="0 0 100 100">
  <path id="object-group" d="M97.656,53.429A2.528,2.528,0,0,0,100,50.75V34.679A2.528,2.528,0,0,0,97.656,32H83.594a2.528,2.528,0,0,0-2.344,2.679v2.679H18.75V34.679A2.528,2.528,0,0,0,16.406,32H2.344A2.528,2.528,0,0,0,0,34.679V50.75a2.528,2.528,0,0,0,2.344,2.679H4.688v57.143H2.344A2.528,2.528,0,0,0,0,113.25v16.071A2.528,2.528,0,0,0,2.344,132H16.406a2.528,2.528,0,0,0,2.344-2.679v-2.679h62.5v2.679A2.528,2.528,0,0,0,83.594,132H97.656A2.528,2.528,0,0,0,100,129.321V113.25a2.528,2.528,0,0,0-2.344-2.679H95.313V53.429ZM87.5,39.143h6.25v7.143H87.5Zm-81.25,0H12.5v7.143H6.25Zm6.25,85.714H6.25v-7.143H12.5Zm81.25,0H87.5v-7.143h6.25Zm-7.812-14.286H83.594a2.528,2.528,0,0,0-2.344,2.679v2.679H18.75V113.25a2.528,2.528,0,0,0-2.344-2.679H14.063V53.429h2.344A2.528,2.528,0,0,0,18.75,50.75V48.071h62.5V50.75a2.528,2.528,0,0,0,2.344,2.679h2.344ZM78.906,67.714H62.5V56.107a2.528,2.528,0,0,0-2.344-2.679H21.094a2.528,2.528,0,0,0-2.344,2.679v37.5a2.528,2.528,0,0,0,2.344,2.679H37.5v11.607a2.528,2.528,0,0,0,2.344,2.679H78.906a2.528,2.528,0,0,0,2.344-2.679v-37.5A2.528,2.528,0,0,0,78.906,67.714ZM26.563,62.357H54.688v25H26.563Zm46.875,39.286H45.313V96.286H60.156A2.528,2.528,0,0,0,62.5,93.607V76.643H73.438Z" transform="translate(0 -32)" fill="#29525e"/>
</svg>
