<svg xmlns="http://www.w3.org/2000/svg" width="100" height="95.382" viewBox="0 0 100 95.382">
  <path id="palette" d="M39.695.876C20.288,4.491,4.668,19.3.841,37.77-6.383,72.615,26.594,98.646,51.409,94.976c8.044-1.193,11.89-10.23,8.2-17.143-4.51-8.46,1.952-18.261,11.91-18.261H87.139c6.99,0,12.671-5.46,12.691-12.112C99.732,18.093,71.676-5.068,39.695.876Zm-21.086,58.7a5.969,5.969,0,1,1,0-11.926,5.969,5.969,0,1,1,0,11.926Zm6.248-23.851a5.969,5.969,0,1,1,0-11.926,5.969,5.969,0,1,1,0,11.926ZM49.847,23.8A6.1,6.1,0,0,1,43.6,17.832a6.255,6.255,0,0,1,12.5,0A6.1,6.1,0,0,1,49.847,23.8ZM74.838,35.721a5.969,5.969,0,1,1,6.248-5.963A6.1,6.1,0,0,1,74.838,35.721Z" transform="translate(0.17 0.061)" fill="#29525e"/>
</svg>
