<svg xmlns="http://www.w3.org/2000/svg" width="90" height="90" viewBox="0 0 90 90">
  <path id="pencil-ruler" d="M19.237,42.889,42.893,19.236l-7.755-7.755L24.3,22.323a1.392,1.392,0,0,1-1.97,0l-1.97-1.97a1.392,1.392,0,0,1,0-1.97L31.2,7.54,25.283,1.625a5.575,5.575,0,0,0-7.885,0L1.629,17.394a5.577,5.577,0,0,0,0,7.885ZM87.521,22.358a8.444,8.444,0,0,0,0-11.941L79.567,2.463a8.447,8.447,0,0,0-11.944,0l-8.089,8.088,19.9,19.9,8.089-8.091ZM55.556,14.53,3.35,66.729.052,85.615a3.732,3.732,0,0,0,4.322,4.317L23.262,86.62,75.454,34.427ZM88.362,64.7l-5.913-5.913L71.606,69.631a1.392,1.392,0,0,1-1.97,0l-1.97-1.97a1.4,1.4,0,0,1,0-1.97L78.507,54.849,70.748,47.09,47.092,70.742,64.707,88.355a5.575,5.575,0,0,0,7.885,0L88.362,72.588a5.575,5.575,0,0,0,0-7.885Z" transform="translate(0.005 0.01)" fill="#29525e"/>
</svg>
