<svg xmlns="http://www.w3.org/2000/svg" width="100" height="100" viewBox="0 0 100 100">
  <g id="planning-svgrepo-com" transform="translate(0 -42.5)">
    <path id="Path_29" data-name="Path 29" d="M2.041,127.194H84.694a1.854,1.854,0,0,0,1.443-.752L99.4,109.76a2.934,2.934,0,0,0,.593-1.815h0V45.066A2.349,2.349,0,0,0,97.959,42.5H2.041A2.349,2.349,0,0,0,0,45.066v79.561A2.349,2.349,0,0,0,2.041,127.194Zm84.694-8.763v-7.919h6.3ZM4.082,47.633H95.918v57.746H84.694a2.349,2.349,0,0,0-2.041,2.566v14.116H4.082Z" fill="#29525e"/>
    <path id="Path_30" data-name="Path 30" d="M111.225,88.52H90.816a2.041,2.041,0,0,0-2.041,2.041v3.061h-5.1a2.041,2.041,0,0,0-2.041,2.041v15.306H65.306v-7.143H76.531a2.041,2.041,0,0,0,2.041-2.041V89.541A2.041,2.041,0,0,0,76.531,87.5H52.041A2.041,2.041,0,0,0,50,89.541v12.245a2.041,2.041,0,0,0,2.041,2.041h9.184v9.184a2.041,2.041,0,0,0,2.041,2.041H81.633v14.286a2.041,2.041,0,0,0,2.041,2.041h5.1v2.041a2.041,2.041,0,0,0,2.041,2.041h20.408a2.041,2.041,0,0,0,2.041-2.041v-10.2a2.041,2.041,0,0,0-2.041-2.041H90.816a2.041,2.041,0,0,0-2.041,2.041V127.3H85.714V115.051h3.061v2.041a2.041,2.041,0,0,0,2.041,2.041h20.408a2.041,2.041,0,0,0,2.041-2.041v-10.2a2.041,2.041,0,0,0-2.041-2.041H90.816a2.041,2.041,0,0,0-2.041,2.041v4.082H85.714V97.7h3.061v3.061a2.041,2.041,0,0,0,2.041,2.041h20.408a2.041,2.041,0,0,0,2.041-2.041v-10.2A2.041,2.041,0,0,0,111.225,88.52ZM54.082,99.745V91.582H74.49v8.163Zm38.776,25.51h16.327v6.122H92.857Zm0-16.327h16.327v6.122H92.857Zm16.327-10.2H92.857V92.6h16.327Z" transform="translate(-39.796 -35.816)" fill="#29525e"/>
    <rect id="Rectangle_38" data-name="Rectangle 38" width="15" height="4" transform="translate(10 93.418)" fill="#29525e"/>
    <rect id="Rectangle_39" data-name="Rectangle 39" width="15" height="3" transform="translate(10 102.434)" fill="#29525e"/>
    <rect id="Rectangle_40" data-name="Rectangle 40" width="27" height="4" transform="translate(10 108.446)" fill="#29525e"/>
    <rect id="Rectangle_41" data-name="Rectangle 41" width="5" height="4" transform="translate(27 93.418)" fill="#29525e"/>
    <rect id="Rectangle_42" data-name="Rectangle 42" width="6" height="4" transform="translate(77 53.327)" fill="#29525e"/>
    <rect id="Rectangle_43" data-name="Rectangle 43" width="5" height="4" transform="translate(86 53.327)" fill="#29525e"/>
    <rect id="Rectangle_44" data-name="Rectangle 44" width="6" height="4" transform="translate(77 61.361)" fill="#29525e"/>
    <rect id="Rectangle_45" data-name="Rectangle 45" width="5" height="4" transform="translate(86 61.361)" fill="#29525e"/>
    <rect id="Rectangle_46" data-name="Rectangle 46" width="6" height="4" transform="translate(77 70.377)" fill="#29525e"/>
    <rect id="Rectangle_47" data-name="Rectangle 47" width="5" height="4" transform="translate(86 70.377)" fill="#29525e"/>
    <rect id="Rectangle_48" data-name="Rectangle 48" width="6" height="4" transform="translate(77 77.39)" fill="#29525e"/>
    <rect id="Rectangle_49" data-name="Rectangle 49" width="5" height="4" transform="translate(86 77.39)" fill="#29525e"/>
    <path id="Path_31" data-name="Path 31" d="M98.6,391.686,86.36,387.6a2.037,2.037,0,0,0-.645-.1v0H2.041A2.041,2.041,0,0,0,0,389.541V397.7a2.041,2.041,0,0,0,2.041,2.041H85.715a2.04,2.04,0,0,0,.645-.1L98.6,395.559a2.041,2.041,0,0,0,0-3.872Zm-86.36,3.977H4.082v-4.082h8.163Zm71.429,0H16.327v-4.082H83.674Zm4.082-.791v-2.5l3.75,1.25Z" transform="translate(0 -257.245)" fill="#29525e"/>
  </g>
</svg>
